<?xml version="1.0" encoding="UTF-8" standalone="no"?>
<!-- Created with Inkscape (http://www.inkscape.org/) -->

<svg
   xmlns:dc="http://purl.org/dc/elements/1.1/"
   xmlns:cc="http://creativecommons.org/ns#"
   xmlns:rdf="http://www.w3.org/1999/02/22-rdf-syntax-ns#"
   xmlns:svg="http://www.w3.org/2000/svg"
   xmlns="http://www.w3.org/2000/svg"
   xmlns:sodipodi="http://sodipodi.sourceforge.net/DTD/sodipodi-0.dtd"
   xmlns:inkscape="http://www.inkscape.org/namespaces/inkscape"
   width="32mm"
   height="32mm"
   viewBox="0 0 32 32"
   version="1.1"
   id="svg8"
   inkscape:version="0.92.4 (5da689c313, 2019-01-14)"
   sodipodi:docname="icon.svg"
   inkscape:export-filename="/home/k/src/python/webmon/doc/icon-192.png"
   inkscape:export-xdpi="152.39999"
   inkscape:export-ydpi="152.39999">
  <defs
     id="defs2" />
  <sodipodi:namedview
     id="base"
     pagecolor="#ffffff"
     bordercolor="#666666"
     borderopacity="1.0"
     inkscape:pageopacity="0.0"
     inkscape:pageshadow="2"
     inkscape:zoom="3.959798"
     inkscape:cx="5.6326568"
     inkscape:cy="60.983098"
     inkscape:document-units="mm"
     inkscape:current-layer="layer1"
     showgrid="false"
     inkscape:window-width="1599"
     inkscape:window-height="885"
     inkscape:window-x="0"
     inkscape:window-y="0"
     inkscape:window-maximized="1" />
  <metadata
     id="metadata5">
    <rdf:RDF>
      <cc:Work
         rdf:about="">
        <dc:format>image/svg+xml</dc:format>
        <dc:type
           rdf:resource="http://purl.org/dc/dcmitype/StillImage" />
        <dc:title />
      </cc:Work>
    </rdf:RDF>
  </metadata>
  <g
     inkscape:label="Layer 1"
     inkscape:groupmode="layer"
     id="layer1"
     transform="translate(-26.489654,-14.382128)">
    <rect
       style="color:#000000;display:inline;overflow:visible;visibility:visible;opacity:1;fill:#ffffff;fill-opacity:1;fill-rule:evenodd;stroke:#000000;stroke-width:0.1;stroke-linecap:round;stroke-linejoin:round;stroke-miterlimit:4;stroke-dasharray:none;stroke-dashoffset:0;stroke-opacity:1;marker:none;paint-order:normal;enable-background:accumulate"
       id="rect827"
       width="31.9"
       height="31.9"
       x="26.539654"
       y="14.432128" />
    <g
       id="g835"
       transform="matrix(1.0646802,0,0,1.0654797,-2.7838073,-2.7609052)"
       style="fill:#000000;stroke-width:0.93889672;stroke:#000000">
      <g
         aria-label="W"
         transform="matrix(0.5966021,0,0,0.5972128,-49.527621,-40.554241)"
         style="color:#000000;font-style:normal;font-variant:normal;font-weight:normal;font-stretch:normal;font-size:48.4066658px;line-height:125%;font-family:'Antykwa Torunska Condensed';-inkscape-font-specification:'Antykwa Torunska Condensed, Normal';font-variant-ligatures:discretionary-ligatures;font-variant-position:super;font-variant-caps:small-caps;font-variant-numeric:normal;font-feature-settings:normal;text-align:center;writing-mode:lr-tb;text-anchor:middle;display:inline;overflow:visible;visibility:visible;opacity:1;fill:#000000;fill-opacity:1;fill-rule:evenodd;stroke:#000000;stroke-width:0.15729354;stroke-linecap:round;stroke-linejoin:round;stroke-miterlimit:4;stroke-dasharray:none;stroke-dashoffset:0;stroke-opacity:1;marker:none;paint-order:normal;enable-background:accumulate"
         id="flowRoot815">
        <path
           d="m 175.63892,103.00074 q 0,5.66358 -3.24324,14.18315 -3.29166,8.61639 -3.34006,8.76161 -2.1783,6.29287 -2.1783,11.18194 -1.25857,-0.24203 -2.56555,-0.14522 -0.62929,0 -1.30698,0.14522 0,-5.66358 -3.48528,-13.98953 l -3.5821,-8.61638 q -0.96813,-2.42034 -1.5006,-4.45342 -0.6777,3.14644 -3.6305,11.5692 -3.04962,8.81001 -3.29166,14.13474 -0.0484,0.6777 -0.0484,1.35539 -1.30698,-0.24203 -2.56556,-0.14522 -0.67769,0 -1.30698,0.14522 0,-5.17951 -3.04962,-13.16661 -2.9044,-7.64826 -3.38846,-9.19727 -1.4522,-4.69545 -1.4522,-8.61639 0,-1.40379 -0.91973,-1.4522 -1.01654,0 -1.83945,0.48407 l 0.38725,-2.1783 q 0.53247,-0.14522 1.01654,-0.14522 l 3.92094,0.48407 h 0.0484 q 0.24203,0 2.85599,-0.38726 0.62929,-0.0968 1.11335,-0.0968 0.48407,0 1.01654,0.14522 l 0.38726,2.1783 q -0.82292,-0.48407 -1.83946,-0.48407 -0.87132,0 -0.91972,1.4522 0,5.22792 2.71077,13.7959 2.37193,7.45463 2.9044,9.77815 0.67769,-3.04962 3.58209,-11.47238 3.04962,-8.76161 3.24325,-14.08634 0.0484,-0.58088 0.0484,-1.16176 2.61396,0.43566 5.22792,0 0,5.66358 3.14643,14.42519 3.04962,8.42276 3.43687,9.72974 0.43566,1.5006 0.77451,2.85599 0.24203,-1.11335 0.91973,-3.24325 4.50181,-13.69908 4.74385,-18.1525 0.14522,-2.12989 -0.43566,-2.9528 -0.77451,-0.96814 -1.50061,-0.96814 -1.5006,0 -2.9044,0.48407 l 0.38726,-2.1783 q 0.7261,-0.14522 1.5006,-0.14522 l 4.40501,0.48407 h 0.0484 q 1.30698,0 2.46874,-0.33885 z"
           style="fill:#000000;stroke:#000000;stroke-width:0.15729354"
           id="path818" />
      </g>
    </g>
  </g>
</svg>
